<svg xmlns="http://www.w3.org/2000/svg" viewBox="0 0 24 24" width="24" height="24">
  <!-- Outer ring (stroked circle as a filled path) -->
  <path d="M12 3a9 9 0 1 0 0 18 9 9 0 0 0 0-18zm0 1.5a7.5 7.5 0 1 1 0 15 7.5 7.5 0 0 1 0-15z" fill="#C5C5C5"/>
  <!-- Center dot -->
  <circle cx="12" cy="12" r="2" fill="#C5C5C5"/>
  <!-- Cardinal ticks -->
  <rect x="11.25" y="1" width="1.5" height="2.5" rx="0.75" fill="#C5C5C5"/>
  <rect x="11.25" y="20.5" width="1.5" height="2.5" rx="0.75" fill="#C5C5C5"/>
  <rect x="1" y="11.25" width="2.5" height="1.5" rx="0.75" fill="#C5C5C5"/>
  <rect x="20.5" y="11.25" width="2.5" height="1.5" rx="0.75" fill="#C5C5C5"/>
  <!-- Diagonal ticks -->
  <rect x="4.7" y="5.0" width="2.2" height="1.2" rx="0.6" transform="rotate(-45 5.8 5.6)" fill="#C5C5C5"/>
  <rect x="17.1" y="5.0" width="2.2" height="1.2" rx="0.6" transform="rotate(45 18.2 5.6)" fill="#C5C5C5"/>
  <rect x="4.7" y="17.8" width="2.2" height="1.2" rx="0.6" transform="rotate(45 5.8 18.4)" fill="#C5C5C5"/>
  <rect x="17.1" y="17.8" width="2.2" height="1.2" rx="0.6" transform="rotate(-45 18.2 18.4)" fill="#C5C5C5"/>
</svg>
